<?xml version="1.0" encoding="UTF-8"?>
<!DOCTYPE svg PUBLIC "-//W3C//DTD SVG 1.1//EN" "http://www.w3.org/Graphics/SVG/1.1/DTD/svg11.dtd">
<svg xmlns="http://www.w3.org/2000/svg" version="1.1" width="1024px" height="1024px" style="shape-rendering:geometricPrecision; text-rendering:geometricPrecision; image-rendering:optimizeQuality; fill-rule:evenodd; clip-rule:evenodd" xmlns:xlink="http://www.w3.org/1999/xlink">
<g><path style="opacity:0.982" fill="#000000" d="M 509.5,51.5 C 511.857,51.3367 514.19,51.5034 516.5,52C 648.203,127.516 779.87,203.016 911.5,278.5C 912.667,429.832 912.833,581.166 912,732.5C 910.756,735.638 910.089,738.972 910,742.5C 777.249,820.003 644.249,897.003 511,973.5C 377.713,897.381 244.546,821.047 111.5,744.5C 110.167,590.167 110.167,435.833 111.5,281.5C 243.766,203.883 376.433,127.216 509.5,51.5 Z M 441.5,301.5 C 448.937,302.051 455.27,305.051 460.5,310.5C 461.452,312.045 461.785,313.712 461.5,315.5C 456.184,314.34 451.517,311.84 447.5,308C 446,307.833 444.5,307.667 443,307.5C 436.184,310.105 429.351,312.605 422.5,315C 417.787,315.739 413.454,314.739 409.5,312C 407.745,311.28 406.911,310.113 407,308.5C 409.28,307.914 411.447,307.08 413.5,306C 423.169,305.104 432.503,303.604 441.5,301.5 Z M 353.5,304.5 C 358.985,306.163 364.318,308.163 369.5,310.5C 373.118,309.209 376.618,307.542 380,305.5C 382.092,306.258 383.925,307.425 385.5,309C 378.37,314.431 375.537,321.598 377,330.5C 378.588,333.309 380.755,333.975 383.5,332.5C 384.185,329.373 385.185,326.373 386.5,323.5C 390.97,326.47 394.97,329.97 398.5,334C 408.955,333.568 418.622,336.068 427.5,341.5C 428.086,341.291 428.586,340.957 429,340.5C 429.261,336.294 429.761,332.127 430.5,328C 434.046,322.202 438.046,322.035 442.5,327.5C 449.142,328.664 455.808,328.831 462.5,328C 471.487,325.681 477.654,320.181 481,311.5C 483.394,310.049 485.561,310.382 487.5,312.5C 489.691,315.529 491.691,318.695 493.5,322C 493.501,330.168 493.835,338.334 494.5,346.5C 491.614,346.71 488.614,346.877 485.5,347C 484.422,347.674 483.755,348.674 483.5,350C 485.252,354.831 487.252,359.498 489.5,364C 488.045,366.811 487.045,369.811 486.5,373C 487.469,376.808 488.302,380.641 489,384.5C 489.781,414.18 489.448,443.846 488,473.5C 486.882,476.139 486.382,478.973 486.5,482C 487.571,489.701 489.238,497.201 491.5,504.5C 489.852,510.63 489.019,516.963 489,523.5C 488.333,562.167 488.333,600.833 489,639.5C 491.775,655.111 500.942,664.778 516.5,668.5C 517.559,681.566 515.226,694.066 509.5,706C 505.467,712.033 500.467,717.033 494.5,721C 446.172,720.576 397.838,720.576 349.5,721C 344.806,719.898 340.973,717.398 338,713.5C 333.139,702.785 329.139,691.785 326,680.5C 324.622,676.102 325.788,672.602 329.5,670C 339.863,666.319 349.863,661.819 359.5,656.5C 362.505,653.836 364.338,650.503 365,646.5C 366.677,552.836 366.677,459.17 365,365.5C 363.521,363.735 361.688,362.401 359.5,361.5C 348.997,359.538 338.997,356.205 329.5,351.5C 328.262,347.026 328.262,342.526 329.5,338C 333.403,327.092 339.07,317.259 346.5,308.5C 348.771,306.87 351.104,305.537 353.5,304.5 Z M 537.5,309.5 C 546.84,309.598 556.173,309.932 565.5,310.5C 583.122,312.566 600.789,314.399 618.5,316C 627.28,317.183 635.946,319.016 644.5,321.5C 653.023,326.69 657.023,334.357 656.5,344.5C 658.467,344.261 660.301,344.594 662,345.5C 662.212,348.758 662.712,351.924 663.5,355C 664.944,355.781 666.277,355.614 667.5,354.5C 669.11,352.403 670.277,350.07 671,347.5C 672.739,349.283 674.572,350.95 676.5,352.5C 682.911,363.822 688.577,375.488 693.5,387.5C 701.705,413.188 701.372,438.855 692.5,464.5C 691.833,465.5 691.167,466.5 690.5,467.5C 686.17,465.839 681.837,464.339 677.5,463C 670.003,462.172 664.836,465.339 662,472.5C 661.272,475.23 661.438,477.897 662.5,480.5C 668.286,485.881 673.286,491.881 677.5,498.5C 678.133,502.829 679.133,506.996 680.5,511C 679.677,513.734 678.677,516.401 677.5,519C 669.655,527.845 661.155,536.012 652,543.5C 650.694,542.088 649.86,540.421 649.5,538.5C 648.958,530.648 647.792,522.982 646,515.5C 644.466,510.632 641.299,507.466 636.5,506C 618.865,503.691 611.365,511.191 614,528.5C 617.389,530.038 620.889,531.372 624.5,532.5C 628.385,536.255 630.052,540.922 629.5,546.5C 631.244,553.253 628.911,557.753 622.5,560C 603.498,564.617 584.165,566.617 564.5,566C 556.422,567.526 548.255,568.693 540,569.5C 535.868,569.282 532.202,567.949 529,565.5C 516.957,551.364 514.457,535.698 521.5,518.5C 525.304,510.695 531.304,505.362 539.5,502.5C 546.694,502.036 553.694,500.703 560.5,498.5C 567.822,494.99 573.156,489.49 576.5,482C 577.572,477.952 579.072,474.119 581,470.5C 584.403,442.384 585.403,414.05 584,385.5C 582.837,383.715 582.17,381.715 582,379.5C 574.812,370.986 565.979,364.819 555.5,361C 551.403,359.266 547.069,358.266 542.5,358C 535.57,357.76 528.736,357.593 522,357.5C 520.253,343.026 521.753,329.026 526.5,315.5C 529.055,311.384 532.722,309.384 537.5,309.5 Z"/></g>
<g><path style="opacity:0.579" fill="#000000" d="M 618.5,369.5 C 623.131,368.822 625.131,370.822 624.5,375.5C 623.816,378.861 623.15,382.195 622.5,385.5C 620.257,386.312 617.924,386.979 615.5,387.5C 613.076,386.979 610.743,386.312 608.5,385.5C 608.248,382.68 608.748,380.014 610,377.5C 612.634,374.504 615.467,371.837 618.5,369.5 Z"/></g>
<g><path style="opacity:0.525" fill="#000000" d="M 603.5,494.5 C 608.453,495.722 613.453,497.055 618.5,498.5C 619.926,503.915 617.76,506.915 612,507.5C 605.992,507.315 602.492,504.315 601.5,498.5C 601.752,496.927 602.418,495.594 603.5,494.5 Z"/></g>
</svg>
